<svg width="32" height="32" viewBox="0 0 32 32" fill="none" xmlns="http://www.w3.org/2000/svg">
<rect width="32" height="32" fill="#0A0A0A"/>
<path d="M15.7741 4.00612C17.8109 3.92388 20.1453 4.67481 21.7115 5.97773C23.4352 7.41181 24.3207 9.19918 24.5354 11.4046L19.9137 11.405C19.2449 7.50534 13.8812 7.01024 12.1254 10.3458C11.8743 10.8228 11.7572 11.3625 11.7513 11.9011C11.7392 12.7845 12.0798 13.6365 12.6982 14.2693C13.5703 15.1536 14.7411 15.512 15.9613 15.5165C15.9816 14.603 15.9642 13.6053 15.9642 12.686C16.1955 12.6846 16.4271 12.6875 16.6582 12.695C18.9755 12.7834 21.2582 13.6214 22.8554 15.3429C24.1041 16.6888 24.7613 18.4767 24.6809 20.3085C24.5259 24.0796 21.9082 26.9921 18.2596 27.7826C17.2251 28.0069 16.3364 28.0241 15.2857 27.9814C13.4031 27.8023 11.7826 27.2737 10.302 26.0626C8.64659 24.7012 7.59323 22.7467 7.36842 20.6191L11.9735 20.6173C12.115 21.4113 12.3717 21.9692 12.9287 22.5635C14.5024 24.2217 17.3282 24.2797 18.9911 22.7225C20.592 21.2236 20.7061 18.6095 19.1475 17.0412C18.2654 16.1538 17.2153 15.8124 15.9728 15.7957L15.9672 19.541C13.5967 19.5248 11.4021 18.914 9.62813 17.2693C8.19971 15.9509 7.36637 14.1128 7.31763 12.1727C7.24319 10.1335 7.98109 8.14787 9.3702 6.6493C11.1119 4.80477 13.2912 4.08185 15.7741 4.00612Z" fill="#EAE4DA"/>
</svg>
